<?xml version="1.0" encoding="utf-8"?>
<!-- Generator: Adobe Illustrator 20.1.0, SVG Export Plug-In . SVG Version: 6.00 Build 0)  -->
<!DOCTYPE svg PUBLIC "-//W3C//DTD SVG 1.1//EN" "http://www.w3.org/Graphics/SVG/1.1/DTD/svg11.dtd">
<svg version="1.1" id="Layer_1" xmlns="http://www.w3.org/2000/svg" xmlns:xlink="http://www.w3.org/1999/xlink" x="0px" y="0px"
	 viewBox="0 0 89.6 73.9" enable-background="new 0 0 89.6 73.9" xml:space="preserve">
<g>
	<path fill="#1D1D1B" d="M48.7,16.9c-8.1,0-14.8,6.6-14.8,14.8c0,3.1,1,6,2.6,8.4L22.8,53.8l3.2,3.2l13.7-13.7
		c2.5,1.9,5.6,3.1,9,3.1c8.1,0,14.8-6.6,14.8-14.8C63.5,23.5,56.9,16.9,48.7,16.9z M48.7,41.9c-5.7,0-10.3-4.6-10.3-10.3
		c0-5.7,4.6-10.3,10.3-10.3C54.4,21.4,59,26,59,31.6C59,37.3,54.4,41.9,48.7,41.9z"/>
	<path fill="#1D1D1B" d="M40.3,33.3h4.5c0-3,2.4-5.4,5.4-5.4v-4.5C44.8,23.4,40.3,27.8,40.3,33.3z"/>
</g>
</svg>
