<?xml version="1.0" encoding="utf-8"?>
<!-- Generator: Adobe Illustrator 20.1.0, SVG Export Plug-In . SVG Version: 6.00 Build 0)  -->
<!DOCTYPE svg PUBLIC "-//W3C//DTD SVG 1.1//EN" "http://www.w3.org/Graphics/SVG/1.1/DTD/svg11.dtd">
<svg version="1.1" id="Layer_1" xmlns="http://www.w3.org/2000/svg" xmlns:xlink="http://www.w3.org/1999/xlink" x="0px" y="0px"
	 viewBox="0 0 89.6 73.9" enable-background="new 0 0 89.6 73.9" xml:space="preserve">
<path fill="#1D1D1B" d="M43.7,19.8l-5.3-0.1l6.5-6.4L42,10.4l-8.1,8.1l0,0l-3.3,3.3l0,0l0,0l3.3,3.3l0,0l8.1,8.1l2.8-2.8l-6.4-6.5
	l5.3,0.1c8.7,0,15.8,7.1,15.8,15.8c0,8.6-6.9,15.6-15.4,15.8h0c-4.2-0.2-8.1-2.2-10.9-5.3c-2.8-3.1-4.3-7.2-4-11.4l-4.3-0.2
	c-0.3,5.4,1.6,10.5,5.2,14.5c3.6,4,8.5,6.5,13.8,6.8l0,0c11.1,0,20.1-9,20.1-20.1S54.8,19.8,43.7,19.8z"/>
</svg>
