<?xml version="1.0" encoding="utf-8"?>
<!-- Generator: Adobe Illustrator 20.1.0, SVG Export Plug-In . SVG Version: 6.00 Build 0)  -->
<!DOCTYPE svg PUBLIC "-//W3C//DTD SVG 1.1//EN" "http://www.w3.org/Graphics/SVG/1.1/DTD/svg11.dtd">
<svg version="1.1" id="Layer_1" xmlns="http://www.w3.org/2000/svg" xmlns:xlink="http://www.w3.org/1999/xlink" x="0px" y="0px"
	 viewBox="0 0 89.6 73.9" enable-background="new 0 0 89.6 73.9" xml:space="preserve">
<path fill="#1D1D1B" d="M43.9,56.4c-11,0-19.9-8.9-19.9-19.9s8.9-19.9,19.9-19.9s19.9,8.9,19.9,19.9S54.9,56.4,43.9,56.4z
	 M43.9,18.5c-9.9,0-17.9,8-17.9,17.9s8,17.9,17.9,17.9c9.9,0,17.9-8,17.9-17.9S53.8,18.5,43.9,18.5z"/>
<path fill="#1D1D1B" d="M43.9,30.6c-2.2,0-4-1.8-4-4s1.8-4,4-4s4,1.8,4,4S46.1,30.6,43.9,30.6z M43.9,24.7c-1.1,0-2,0.9-2,2
	s0.9,2,2,2c1.1,0,2-0.9,2-2S45,24.7,43.9,24.7z"/>
<path fill="#1D1D1B" d="M47.1,48.3h-6.4V34h6.4V48.3z M42.7,46.3h2.4V36h-2.4V46.3z"/>
</svg>
