<?xml version="1.0" encoding="utf-8"?>
<!-- Generator: Adobe Illustrator 20.1.0, SVG Export Plug-In . SVG Version: 6.00 Build 0)  -->
<!DOCTYPE svg PUBLIC "-//W3C//DTD SVG 1.1//EN" "http://www.w3.org/Graphics/SVG/1.1/DTD/svg11.dtd">
<svg version="1.1" id="Layer_1" xmlns="http://www.w3.org/2000/svg" xmlns:xlink="http://www.w3.org/1999/xlink" x="0px" y="0px"
	 viewBox="0 0 89.6 73.9" enable-background="new 0 0 89.6 73.9" xml:space="preserve">
<path fill="#1D1D1B" d="M74.7,57.7H15.2V20.5h13.3l6.4-8.4h21l5.6,8.4h13.2V57.7z M19.2,53.7h51.5V24.5H59.3l-5.6-8.4H36.9l-6.4,8.4
	H19.2V53.7z"/>
<path fill="#1D1D1B" d="M45,50.4c-7.3,0-13.2-5.9-13.2-13.2S37.7,23.9,45,23.9c7.3,0,13.2,5.9,13.2,13.2S52.3,50.4,45,50.4z
	 M45,27.9c-5.1,0-9.2,4.1-9.2,9.2s4.1,9.2,9.2,9.2s9.2-4.1,9.2-9.2S50.1,27.9,45,27.9z"/>
<path fill="#1D1D1B" d="M52.8,38.6h-4c0-2.7-2.2-4.8-4.8-4.8v-4C48.9,29.7,52.8,33.7,52.8,38.6z"/>
</svg>
