<?xml version="1.0" encoding="utf-8"?>
<!-- Generator: Adobe Illustrator 20.1.0, SVG Export Plug-In . SVG Version: 6.00 Build 0)  -->
<!DOCTYPE svg PUBLIC "-//W3C//DTD SVG 1.1//EN" "http://www.w3.org/Graphics/SVG/1.1/DTD/svg11.dtd">
<svg version="1.1" id="Layer_1" xmlns="http://www.w3.org/2000/svg" xmlns:xlink="http://www.w3.org/1999/xlink" x="0px" y="0px"
	 viewBox="0 0 89.6 73.9" enable-background="new 0 0 89.6 73.9" xml:space="preserve">
<path fill="#1D1D1B" d="M31.5,38V19h-4v19c-2.9,0.9-5,3.5-5,6.7s2.1,5.8,5,6.7v4.1h4v-4.1c2.9-0.9,5-3.5,5-6.7S34.3,38.8,31.5,38z
	 M31.5,47.7c-0.6,0.4-1.3,0.6-2,0.6c-0.7,0-1.4-0.2-2-0.6c-1-0.7-1.7-1.8-1.7-3.1c0-1.3,0.7-2.4,1.7-3.1c0.6-0.4,1.3-0.6,2-0.6
	c0.7,0,1.4,0.2,2,0.6c1,0.7,1.7,1.8,1.7,3.1C33.1,45.9,32.5,47.1,31.5,47.7z"/>
<path fill="#1D1D1B" d="M61.5,38V19h-4v19c-2.9,0.9-5,3.5-5,6.7s2.1,5.8,5,6.7v4.1h4v-4.1c2.9-0.9,5-3.5,5-6.7S64.4,38.8,61.5,38z
	 M61.5,47.7c-0.6,0.4-1.3,0.6-2,0.6c-0.7,0-1.4-0.2-2-0.6c-1-0.7-1.7-1.8-1.7-3.1c0-1.3,0.7-2.4,1.7-3.1c0.6-0.4,1.3-0.6,2-0.6
	c0.7,0,1.4,0.2,2,0.6c1,0.7,1.7,1.8,1.7,3.1C63.2,45.9,62.6,47.1,61.5,47.7z"/>
<path fill="#1D1D1B" d="M44.9,18.5c-3.8,0-7,3.1-7,7c0,3.2,2.1,5.8,5,6.7v23.3h4V32.1c2.9-0.9,5-3.5,5-6.7
	C51.8,21.6,48.7,18.5,44.9,18.5z M46.9,28.5c-0.6,0.4-1.3,0.6-2,0.6c-0.7,0-1.4-0.2-2-0.6c-1-0.7-1.7-1.8-1.7-3.1
	c0-1.3,0.7-2.4,1.7-3.1c0.6-0.4,1.3-0.6,2-0.6c0.7,0,1.4,0.2,2,0.6c1,0.7,1.7,1.8,1.7,3.1C48.6,26.7,47.9,27.9,46.9,28.5z"/>
</svg>
