<?xml version="1.0" encoding="utf-8"?>
<!-- Generator: Adobe Illustrator 20.1.0, SVG Export Plug-In . SVG Version: 6.00 Build 0)  -->
<!DOCTYPE svg PUBLIC "-//W3C//DTD SVG 1.1//EN" "http://www.w3.org/Graphics/SVG/1.1/DTD/svg11.dtd">
<svg version="1.1" id="Layer_1" xmlns="http://www.w3.org/2000/svg" xmlns:xlink="http://www.w3.org/1999/xlink" x="0px" y="0px"
	 viewBox="0 0 89.6 73.9" enable-background="new 0 0 89.6 73.9" xml:space="preserve">
<path fill="#1D1D1B" d="M53.4,54c-1.9,0.6-7.2,2-10.7,2c-13.6,0-23.5-8.4-23.5-20.1c0-11.6,9.9-20.1,23.5-20.1S66.3,24.4,66.3,36
	c0,3.4-2,8-2.8,9.8c0,0,2.8,11,2.2,11.6C65.3,57.7,53.4,54,53.4,54z M53.5,49.9c0.2,0,0.5,0,0.7,0.1l7.1,2.6l-1.9-6.5
	c-0.1-0.5-0.1-1,0.1-1.5c0.8-1.5,2.7-6.1,2.7-8.7c0-9.5-8-16.1-19.5-16.1S23.3,26.6,23.3,36c0,9.5,8,16.1,19.5,16.1
	c2.9,0,8.3-1.5,10.1-2.1C53.1,50,53.3,49.9,53.5,49.9z"/>
<text transform="matrix(1 0 0 1 28.0006 40.0867)" fill="#1D1D1B" font-family="'Roboto-Bold'" font-size="12.8162px">SMS</text>
</svg>
